<svg xmlns="http://www.w3.org/2000/svg" width="680.177" height="412.728" viewBox="0 0 680.177 412.728"><defs><style>.pentagon-shard-a{fill:#e8185f;}.pentagon-shard-b{fill:#fff;}</style></defs><g transform="translate(-259.747 -193.5)"><path class="pentagon-shard-a" d="M288.949,13.192a89,89,0,0,1,66.039,0l192.52,76.915a89,89,0,0,1,43.6,127.924l-44.32,75.007a89,89,0,0,1-76.623,43.725h-296.4a89,89,0,0,1-76.623-43.725L52.824,218.03a89,89,0,0,1,43.6-127.924Z" transform="translate(898.883 606.228) rotate(-173)"/><path class="pentagon-shard-b" d="M-205.376,0q-.512,0-.512-.64l.256-87.936a.453.453,0,0,1,.512-.512h24.576a24.534,24.534,0,0,1,13.056,3.52,25.938,25.938,0,0,1,9.088,9.28,24.638,24.638,0,0,1,3.328,12.544,21.632,21.632,0,0,1-2.5,10.24,25.613,25.613,0,0,1-5.952,7.68,26.623,26.623,0,0,1,5.76,8.576,26.121,26.121,0,0,1,2.048,10.24A26.438,26.438,0,0,1-159.3-13.44a27.252,27.252,0,0,1-9.664,9.792A25.745,25.745,0,0,1-182.464,0Zm15.1-53.76h9.728a9.158,9.158,0,0,0,7.232-3.136,10.174,10.174,0,0,0,2.752-6.848,9.819,9.819,0,0,0-2.944-7.1,9.506,9.506,0,0,0-7.04-3.008h-9.728Zm-.128,38.144h7.936a10.734,10.734,0,0,0,7.936-3.392,11.046,11.046,0,0,0,3.328-8,10.834,10.834,0,0,0-3.328-7.936,10.834,10.834,0,0,0-7.936-3.328h-7.808ZM-145.984,0q-.512,0-.512-.64l.256-87.936a.453.453,0,0,1,.512-.512h24.576a24.533,24.533,0,0,1,13.056,3.52,25.938,25.938,0,0,1,9.088,9.28A24.638,24.638,0,0,1-95.68-63.744a21.632,21.632,0,0,1-2.5,10.24,25.613,25.613,0,0,1-5.952,7.68,26.622,26.622,0,0,1,5.76,8.576,26.121,26.121,0,0,1,2.048,10.24A26.438,26.438,0,0,1-99.9-13.44a27.252,27.252,0,0,1-9.664,9.792A25.745,25.745,0,0,1-123.072,0Zm15.1-53.76h9.728A9.158,9.158,0,0,0-113.92-56.9a10.174,10.174,0,0,0,2.752-6.848,9.819,9.819,0,0,0-2.944-7.1,9.506,9.506,0,0,0-7.04-3.008h-9.728Zm-.128,38.144h7.936a10.734,10.734,0,0,0,7.936-3.392,11.046,11.046,0,0,0,3.328-8,10.834,10.834,0,0,0-3.328-7.936,10.834,10.834,0,0,0-7.936-3.328h-7.808ZM-85.952,0q-1.024,0-1.024-.9L-87.1-88.064a.905.905,0,0,1,1.024-1.024h11.52l21.632,50.432-.64-49.408q0-1.024,1.152-1.024h12.672q.768,0,.768,1.024l.128,87.3q0,.768-.64.768H-50.752L-72.9-47.1l.9,46.08Q-72,0-73.152,0ZM-27.2,0a.453.453,0,0,1-.512-.512V-14.976a.453.453,0,0,1,.512-.512h14.464a.453.453,0,0,1,.512.512V-.512A.453.453,0,0,1-12.736,0ZM-1.088,0a.566.566,0,0,1-.64-.64l.256-87.936a.453.453,0,0,1,.512-.512l23.936-.128A23.859,23.859,0,0,1,35.84-85.888a26.134,26.134,0,0,1,9.28,9.28,24.738,24.738,0,0,1,3.456,12.864v36.736a26.1,26.1,0,0,1-3.584,13.5,27.061,27.061,0,0,1-9.6,9.664A26.918,26.918,0,0,1,21.824-.128ZM13.888-15.744h7.936a10.772,10.772,0,0,0,8-3.328,10.941,10.941,0,0,0,3.264-7.936V-63.872a9.714,9.714,0,0,0-3.008-7.1,9.276,9.276,0,0,0-7.1-2.88l-8.96.128ZM79.04,1.28A23.509,23.509,0,0,1,66.5-2.176a26.13,26.13,0,0,1-9.024-9.28A25.339,25.339,0,0,1,54.08-24.448V-65.024A24.857,24.857,0,0,1,57.472-77.76a25.952,25.952,0,0,1,9.088-9.28A23.608,23.608,0,0,1,79.04-90.5,24.416,24.416,0,0,1,91.776-87.1a25.083,25.083,0,0,1,9.024,9.152,25.369,25.369,0,0,1,3.328,12.928v5.888q0,.512-.64.512H89.152a.453.453,0,0,1-.512-.512V-64a11.929,11.929,0,0,0-2.752-8.064,8.67,8.67,0,0,0-6.848-3.2,8.814,8.814,0,0,0-6.592,3.072,10.151,10.151,0,0,0-2.88,7.168v40.576a10.207,10.207,0,0,0,2.816,7.232,8.826,8.826,0,0,0,6.656,3.008,8.991,8.991,0,0,0,6.848-2.944,10.277,10.277,0,0,0,2.752-7.3V-30.72H79.68a.566.566,0,0,1-.64-.64V-45.7a.566.566,0,0,1,.64-.64h23.936q.512,0,.512.64v21.248a25.339,25.339,0,0,1-3.392,12.992,26.13,26.13,0,0,1-9.024,9.28A23.741,23.741,0,0,1,79.04,1.28ZM124.352,0q-.512,0-.512-.64V-73.6H107.2a.566.566,0,0,1-.64-.64l.128-14.336a.453.453,0,0,1,.512-.512h48.64q.64,0,.64.512V-74.24q0,.64-.512.64H139.2l.128,72.96q0,.64-.512.64Zm41.472,0q-.512,0-.512-.64l.128-87.808a.566.566,0,0,1,.64-.64h14.208a.566.566,0,0,1,.64.64l-.128,72.7h26.368a.566.566,0,0,1,.64.64V-.64a.566.566,0,0,1-.64.64Z" transform="translate(603 425)"/></g></svg>