<svg xmlns="http://www.w3.org/2000/svg" xmlns:xlink="http://www.w3.org/1999/xlink" width="1600" height="800" viewBox="0 0 1600 800"><defs><clipPath id="b"><rect width="1600" height="800"/></clipPath></defs><g id="a" clip-path="url(#b)"><rect width="1600" height="800" fill="#fff"/><path d="M268.363,12.666a81.627,81.627,0,0,1,60.568,0L505.5,83.209a81.627,81.627,0,0,1,39.988,117.327l-40.648,68.793a81.627,81.627,0,0,1-70.275,40.1H162.721a81.627,81.627,0,0,1-70.275-40.1L51.8,200.535A81.627,81.627,0,0,1,91.787,83.208Z" transform="translate(436.396 316.689) rotate(-173)" fill="none" stroke="#e8175d" stroke-width="16"/><path d="M8.8,0Q8,0,8-1l.4-137.4a.707.707,0,0,1,.8-.8H47.6A38.333,38.333,0,0,1,68-133.7a40.527,40.527,0,0,1,14.2,14.5,38.5,38.5,0,0,1,5.2,19.6,33.8,33.8,0,0,1-3.9,16,40.02,40.02,0,0,1-9.3,12,41.6,41.6,0,0,1,9,13.4,40.815,40.815,0,0,1,3.2,16A41.309,41.309,0,0,1,80.8-21,42.582,42.582,0,0,1,65.7-5.7,40.227,40.227,0,0,1,44.6,0ZM32.4-84H47.6a14.309,14.309,0,0,0,11.3-4.9,15.9,15.9,0,0,0,4.3-10.7,15.342,15.342,0,0,0-4.6-11.1,14.854,14.854,0,0,0-11-4.7H32.4Zm-.2,59.6H44.6A16.772,16.772,0,0,0,57-29.7a17.26,17.26,0,0,0,5.2-12.5A16.929,16.929,0,0,0,57-54.6a16.929,16.929,0,0,0-12.4-5.2H32.4ZM101.6,0q-.8,0-.8-1l.4-137.4a.707.707,0,0,1,.8-.8h38.4a38.334,38.334,0,0,1,20.4,5.5A40.527,40.527,0,0,1,175-119.2a38.5,38.5,0,0,1,5.2,19.6,33.8,33.8,0,0,1-3.9,16,40.02,40.02,0,0,1-9.3,12,41.6,41.6,0,0,1,9,13.4,40.814,40.814,0,0,1,3.2,16A41.309,41.309,0,0,1,173.6-21,42.582,42.582,0,0,1,158.5-5.7,40.227,40.227,0,0,1,137.4,0Zm23.6-84h15.2a14.309,14.309,0,0,0,11.3-4.9A15.9,15.9,0,0,0,156-99.6a15.342,15.342,0,0,0-4.6-11.1,14.854,14.854,0,0,0-11-4.7H125.2ZM125-24.4h12.4a16.772,16.772,0,0,0,12.4-5.3A17.26,17.26,0,0,0,155-42.2a16.929,16.929,0,0,0-5.2-12.4,16.929,16.929,0,0,0-12.4-5.2H125.2ZM195.4,0q-1.6,0-1.6-1.4l-.2-136.2a1.414,1.414,0,0,1,1.6-1.6h18L247-60.4l-1-77.2q0-1.6,1.8-1.6h19.8q1.2,0,1.2,1.6L269-1.2Q269,0,268,0H250.4L215.8-73.6l1.4,72q0,1.6-1.8,1.6Zm91.8,0a.707.707,0,0,1-.8-.8V-23.4a.707.707,0,0,1,.8-.8h22.6a.707.707,0,0,1,.8.8V-.8a.707.707,0,0,1-.8.8ZM328,0a.884.884,0,0,1-1-1l.4-137.4a.707.707,0,0,1,.8-.8l37.4-.2a37.279,37.279,0,0,1,20.1,5.2,40.835,40.835,0,0,1,14.5,14.5,38.653,38.653,0,0,1,5.4,20.1v57.4A40.776,40.776,0,0,1,400-21.1,42.283,42.283,0,0,1,385-6,42.06,42.06,0,0,1,363.8-.2Zm23.4-24.6h12.4a16.832,16.832,0,0,0,12.5-5.2,17.1,17.1,0,0,0,5.1-12.4V-99.8a15.179,15.179,0,0,0-4.7-11.1,14.494,14.494,0,0,0-11.1-4.5l-14,.2ZM422.4,0a.884.884,0,0,1-1-1l.2-137.4a.707.707,0,0,1,.8-.8h22.4a.707.707,0,0,1,.8.8L445.8-1q0,1-.8,1ZM500,2a36.733,36.733,0,0,1-19.6-5.4,40.828,40.828,0,0,1-14.1-14.5A39.592,39.592,0,0,1,461-38.2v-63.4a38.839,38.839,0,0,1,5.3-19.9A40.55,40.55,0,0,1,480.5-136a36.887,36.887,0,0,1,19.5-5.4,38.15,38.15,0,0,1,19.9,5.3A39.192,39.192,0,0,1,534-121.8a39.639,39.639,0,0,1,5.2,20.2v9.2q0,.8-1,.8H515.8a.707.707,0,0,1-.8-.8V-100a18.639,18.639,0,0,0-4.3-12.6,13.547,13.547,0,0,0-10.7-5,13.773,13.773,0,0,0-10.3,4.8,15.86,15.86,0,0,0-4.5,11.2v63.4a15.949,15.949,0,0,0,4.4,11.3A13.791,13.791,0,0,0,500-22.2a14.048,14.048,0,0,0,10.7-4.6A16.057,16.057,0,0,0,515-38.2V-48H501a.884.884,0,0,1-1-1V-71.4a.884.884,0,0,1,1-1h37.4q.8,0,.8,1v33.2a39.592,39.592,0,0,1-5.3,20.3A40.828,40.828,0,0,1,519.8-3.4,37.1,37.1,0,0,1,500,2Zm54.4-2a.884.884,0,0,1-1-1l.2-137.4a.707.707,0,0,1,.8-.8h22.4a.707.707,0,0,1,.8.8L577.8-1q0,1-.8,1Zm61,0q-.8,0-.8-1V-115h-26a.884.884,0,0,1-1-1l.2-22.4a.707.707,0,0,1,.8-.8h76q1,0,1,.8V-116q0,1-.8,1H638.6l.2,114q0,1-.8,1Zm46-1,24.8-137.4a.945.945,0,0,1,1-.8h29a.945.945,0,0,1,1,.8L741-1q.2,1-.8,1H718q-.8,0-1-1l-2.2-14.6H687.6L685.4-1q-.2,1-1,1H662.2Q661.4,0,661.4-1Zm30.2-36h19.2l-8.2-56.2-1.2-7.4-.8,7.4ZM754.4,0q-.8,0-.8-1l.2-137.2a.884.884,0,0,1,1-1H777a.884.884,0,0,1,1,1l-.2,113.6H819a.884.884,0,0,1,1,1V-1a.884.884,0,0,1-1,1Z" transform="translate(610.597 465)" fill="#161616"/></g></svg>